<?xml version="1.0" standalone="no"?>
<!DOCTYPE svg PUBLIC "-//W3C//DTD SVG 20010904//EN"
 "http://www.w3.org/TR/2001/REC-SVG-20010904/DTD/svg10.dtd">
<svg version="1.0" xmlns="http://www.w3.org/2000/svg"
 width="29.000000pt" height="29.000000pt" viewBox="0 0 29.000000 29.000000"
 preserveAspectRatio="xMidYMid meet">

<g transform="translate(0.000000,29.000000) scale(0.100000,-0.100000)"
fill="#000000" stroke="none">
<path d="M15 274 c-18 -19 -16 -33 7 -48 12 -7 21 -6 32 3 22 18 20 38 -3 51
-15 7 -24 6 -36 -6z"/>
<path d="M188 185 c-16 -7 -28 -10 -28 -4 0 5 -11 9 -25 9 -25 0 -25 0 -25
-95 0 -95 0 -95 25 -95 24 0 25 2 25 64 0 69 14 92 50 81 18 -6 20 -15 20 -76
l0 -70 28 3 c27 3 27 3 26 81 0 80 -8 99 -49 111 -11 3 -32 -1 -47 -9z"/>
<path d="M10 95 c0 -95 0 -95 25 -95 25 0 25 0 25 95 0 95 0 95 -25 95 -25 0
-25 0 -25 -95z"/>
</g>
</svg>
