<svg width="1176" height="568" viewBox="0 0 1176 568" fill="none" xmlns="http://www.w3.org/2000/svg">
<rect opacity="0.1" width="1176" height="8" transform="matrix(1 0 0 -1 0 304)" fill="url(#paint0_linear_1855_5750)"/>
<g filter="url(#filter0_d_1855_5750)">
<circle r="16" transform="matrix(1 0 0 -1 73 299)" fill="#B79841" fill-opacity="0.5"/>
<circle r="8" transform="matrix(1 0 0 -1 73 299)" fill="#B79841"/>
</g>
<line y1="-0.5" x2="232" y2="-0.5" transform="matrix(0 -1 -1 0 73 294)" stroke="#B79841"/>
<circle r="16" transform="matrix(1 0 0 -1 263 299)" fill="#B79841" fill-opacity="0.5"/>
<circle r="8" transform="matrix(1 0 0 -1 263 299)" fill="#B79841"/>
<line y1="-0.5" x2="274" y2="-0.5" transform="matrix(-2.20263e-08 -1 -1 2.20263e-08 263 568)" stroke="#B79841"/>
<circle r="16" transform="matrix(1 0 0 -1 485 302)" fill="#B79841" fill-opacity="0.5"/>
<circle r="8" transform="matrix(1 0 0 -1 485 301)" fill="#B79841"/>
<line y1="-0.5" x2="290" y2="-0.5" transform="matrix(0 -1 -1 0 485 295)" stroke="#B79841"/>
<circle r="16" transform="matrix(1 0 0 -1 707 299)" fill="#B79841" fill-opacity="0.5"/>
<circle r="8" transform="matrix(1 0 0 -1 707 299)" fill="#B79841"/>
<line y1="-0.5" x2="268.832" y2="-0.5" transform="matrix(-0.00371982 -0.999993 -0.999992 0.00397677 708 568)" stroke="#B79841"/>
<line x1="1" y1="-1" x2="72" y2="-1" transform="matrix(1 -8.74228e-08 -8.74228e-08 -1 0 299)" stroke="#B79841" stroke-width="2" stroke-linecap="round" stroke-dasharray="1 5"/>
<defs>
<filter id="filter0_d_1855_5750" x="45" y="271" width="56" height="56" filterUnits="userSpaceOnUse" color-interpolation-filters="sRGB">
<feFlood flood-opacity="0" result="BackgroundImageFix"/>
<feColorMatrix in="SourceAlpha" type="matrix" values="0 0 0 0 0 0 0 0 0 0 0 0 0 0 0 0 0 0 127 0" result="hardAlpha"/>
<feOffset/>
<feGaussianBlur stdDeviation="6"/>
<feComposite in2="hardAlpha" operator="out"/>
<feColorMatrix type="matrix" values="0 0 0 0 1 0 0 0 0 1 0 0 0 0 1 0 0 0 1 0"/>
<feBlend mode="normal" in2="BackgroundImageFix" result="effect1_dropShadow_1855_5750"/>
<feBlend mode="normal" in="SourceGraphic" in2="effect1_dropShadow_1855_5750" result="shape"/>
</filter>
<linearGradient id="paint0_linear_1855_5750" x1="1315.24" y1="3.64639" x2="1314.98" y2="-14.1717" gradientUnits="userSpaceOnUse">
<stop stop-color="#EDC452"/>
<stop offset="1" stop-color="#846424"/>
</linearGradient>
</defs>
</svg>
